# Made in Blockbench 4.1.3
mtllib kitchen_stove_charcoal.mtl

o charcoal
v 0.6875 0.25 0.75
v 0.6875 0.25 0.4375
v 0.6875 0 0.75
v 0.6875 0 0.4375
v 0.4375 0.25 0.75
v 0.4375 0 0.75
v 0.4375 0.25 0.8125
v 0.4375 0.25 0.5625
v 0.4375 0 0.8125
v 0.1875 0.25 0.8125
v 0.1875 0.25 0.5625
v 0.1875 0 0.8125
v 0.625 0.1875 1
v 0.625 0.1875 0.8125
v 0.625 0 1
v 0.625 0 0.8125
v 0.4375 0.1875 1
v 0.4375 0.1875 0.8125
v 0.4375 0 1
v 0.4375 0 0.8125
v 0.8125 0.1875 0.8125
v 0.8125 0.1875 0.625
v 0.8125 0 0.8125
v 0.8125 0 0.625
v 0.625 0.1875 0.8125
v 0.625 0.1875 0.625
v 0.625 0 0.8125
v 0.625 0 0.625
v 0.5 0.4375 0.75
v 0.5 0.4375 0.5625
v 0.5 0.25 0.75
v 0.5 0.25 0.5625
v 0.3125 0.4375 0.75
v 0.3125 0.4375 0.5625
v 0.3125 0.25 0.75
v 0.3125 0.25 0.5625
v 0.4375 0.125 0.9375
v 0.4375 0.125 0.8125
v 0.4375 0 0.9375
v 0.25 0.125 0.9375
v 0.25 0.125 0.8125
v 0.25 0 0.9375
v 0.25 0 0.8125
v 0.8125 0.125 0.9375
v 0.8125 0.125 0.8125
v 0.8125 0 0.9375
v 0.625 0.125 0.9375
v 0.625 0.125 0.8125
v 0.625 0 0.9375
v 0.6875 0.375 0.6875
v 0.6875 0.25 0.6875
v 0.6875 0.25 0.5625
v 0.5 0.375 0.6875
v 0.5 0.375 0.5625
v 0.5 0.25 0.6875
v 0.6875 0.375 0.5625
v 0.4375 0 0.5625
vt 0.5 0.75
vt 0.5 1
vt 0.8125 1
vt 0.8125 0.75
vt 0.5625 0.5
vt 0.5625 0.75
vt 0.8125 0.75
vt 0.8125 0.5
vt 0.75 0.75
vt 0.75 1
vt 1 1
vt 1 0.75
vt 0.6875 0.8125
vt 0.6875 1
vt 0.875 1
vt 0.875 0.8125
vt 0.8125 0.5625
vt 0.8125 0.75
vt 1 0.75
vt 1 0.5625
vt 0.5 0.8125
vt 0.5 1
vt 0.6875 1
vt 0.6875 0.8125
vt 0.8125 0.8125
vt 0.8125 1
vt 1 1
vt 1 0.8125
vt 0.5 0.5
vt 0.5 0.6875
vt 0.6875 0.6875
vt 0.6875 0.5
vt 0.8125 0.5625
vt 0.8125 0.75
vt 1 0.75
vt 1 0.5625
vt 0.5 0.625
vt 0.5 0.8125
vt 0.6875 0.8125
vt 0.6875 0.625
vt 0.5 0.8125
vt 0.5 1
vt 0.6875 1
vt 0.6875 0.8125
vt 0.6875 0.8125
vt 0.6875 1
vt 0.875 1
vt 0.875 0.8125
vt 0.875 0.5
vt 0.875 0.625
vt 1 0.625
vt 1 0.5
vt 0.5 0.5
vt 0.5 0.625
vt 0.6875 0.625
vt 0.6875 0.5
vt 0.6875 0.5
vt 0.6875 0.625
vt 0.875 0.625
vt 0.875 0.5
vt 0.8125 0.75
vt 0.8125 0.875
vt 1 0.875
vt 1 0.75
vt 0.5 0.625
vt 0.5 0.75
vt 0.6875 0.75
vt 0.6875 0.625
vt 0.5 0.5
vt 0.5 0.625
vt 0.625 0.625
vt 0.625 0.5
vt 0.6875 0.5625
vt 0.6875 0.6875
vt 0.875 0.6875
vt 0.875 0.5625
vt 0.6875 0.625
vt 0.6875 0.8125
vt 0.875 0.8125
vt 0.875 0.625
vt 0.75 0.5
vt 0.75 0.75
vt 1 0.75
vt 1 0.5
vt 0.6875 0.8125
vt 0.6875 0.625
vt 0.5 0.625
vt 0.5 0.8125
vt 0.6875 0.6875
vt 0.6875 0.8125
vt 0.875 0.8125
vt 0.875 0.6875
vt 1 0.5625
vt 1 0.5
vt 0.8125 0.5
vt 0.8125 0.5625
vt 0.75 0.75
vt 0.75 1
vt 1 1
vt 1 0.75
vt 0.6875 0.5
vt 0.6875 0.6875
vt 0.875 0.6875
vt 0.875 0.5
vn 1 0 0
vn 0 0 1
vn 0 1 0
vn 1 0 0
vn 0 1 0
vn 0 0 1
vn 1 0 0
vn -1 0 0
vn 0 1 0
vn -1 0 0
vn 0 1 0
vn 0 0 1
vn -1 0 0
vn 0 1 0
vn 0 0 1
vn 0 1 0
vn 0 0 1
vn 1 0 0
vn 0 0 1
vn -1 0 0
vn 0 0 1
vn 1 0 0
vn 0 1 0
vn 0 1 0
vn 1 0 0
vn 0 0 1
usemtl m_0
f 4/1/1 2/2/1 1/3/1 3/4/1
f 3/5/2 1/6/2 5/7/2 6/8/2
f 7/9/3 8/10/3 11/11/3 10/12/3
f 16/13/4 14/14/4 13/15/4 15/16/4
f 13/17/5 14/18/5 18/19/5 17/20/5
f 15/21/6 13/22/6 17/23/6 19/24/6
f 24/25/7 22/26/7 21/27/7 23/28/7
f 27/29/8 25/30/8 26/31/8 28/32/8
f 21/33/9 22/34/9 26/35/9 25/36/9
f 35/37/10 33/38/10 34/39/10 36/40/10
f 29/41/11 30/42/11 34/43/11 33/44/11
f 31/45/12 29/46/12 33/47/12 35/48/12
f 42/49/13 40/50/13 41/51/13 43/52/13
f 37/53/14 38/54/14 41/55/14 40/56/14
f 39/57/15 37/58/15 40/59/15 42/60/15
f 44/61/16 45/62/16 48/63/16 47/64/16
f 46/65/17 44/66/17 47/67/17 49/68/17
f 52/69/18 56/70/18 50/71/18 51/72/18
f 51/73/19 50/74/19 53/75/19 55/76/19
f 19/77/20 17/78/20 18/79/20 20/80/20
f 9/81/21 7/82/21 10/83/21 12/84/21
f 29/85/22 31/86/22 32/87/22 30/88/22
f 50/89/23 56/90/23 54/91/23 53/92/23
f 55/93/24 31/94/24 1/95/24 51/96/24
f 57/97/25 8/98/25 7/99/25 9/100/25
f 23/101/26 21/102/26 25/103/26 27/104/26