# Made in Blockbench 4.1.3
mtllib kitchen_stove.mtl

o stoveWallW
v 0.1875 0.5 1
v 0.1875 0.5 0
v 0.1875 0 1
v 0.1875 0 0
v 0 0.5 0
v 0 0.5 1
v 0 0 0
v 0 0 1
vt 0.953125 0.75
vt 1 0.75
vt 1 0.5
vt 0.953125 0.5
vt 0.25 0.25
vt 0.5 0.25
vt 0.5 0
vt 0.25 0
vt 0.25 0.75
vt 0.296875 0.75
vt 0.296875 0.5
vt 0.25 0.5
vt 0 0.75
vt 0.25 0.75
vt 0.25 0.5
vt 0 0.5
vt 0.25 0.5
vt 0.296875 0.5
vt 0.296875 0
vt 0.25 0
vn 0 0 -1
vn 1 0 0
vn 0 0 1
vn -1 0 0
vn 0 -1 0
usemtl m_0
f 4/4/1 7/3/1 5/2/1 2/1/1
f 3/8/2 4/7/2 2/6/2 1/5/2
f 8/12/3 3/11/3 1/10/3 6/9/3
f 7/16/4 8/15/4 6/14/4 5/13/4
f 7/20/5 4/19/5 3/18/5 8/17/5
o stoveWallE
v 1 0.5 1
v 1 0.5 0
v 1 0 1
v 1 0 0
v 0.8125 0.5 0
v 0.8125 0.5 1
v 0.8125 0 0
v 0.8125 0 1
vt 0.75 0.75
vt 0.796875 0.75
vt 0.796875 0.5
vt 0.75 0.5
vt 0.5 0.75
vt 0.75 0.75
vt 0.75 0.5
vt 0.5 0.5
vt 0.453125 0.75
vt 0.5 0.75
vt 0.5 0.5
vt 0.453125 0.5
vt 0.25 0.25
vt 0.5 0.25
vt 0.5 0
vt 0.25 0
vt 0.453125 0.5
vt 0.5 0.5
vt 0.5 0
vt 0.453125 0
vn 0 0 -1
vn 1 0 0
vn 0 0 1
vn -1 0 0
vn 0 -1 0
usemtl m_0
f 12/24/6 15/23/6 13/22/6 10/21/6
f 11/28/7 12/27/7 10/26/7 9/25/7
f 16/32/8 11/31/8 9/30/8 14/29/8
f 15/36/9 16/35/9 14/34/9 13/33/9
f 15/40/10 12/39/10 11/38/10 16/37/10
o stoveMensa
v 1 0.875 1
v 1 0.875 0
v 1 0.5 1
v 1 0.5 0
v 0 0.875 0
v 0 0.875 1
v 0 0.5 0
v 0 0.5 1
vt 0.75 0.9375
vt 1 0.9375
vt 1 0.75
vt 0.75 0.75
vt 0.5 0.9375
vt 0.75 0.9375
vt 0.75 0.75
vt 0.5 0.75
vt 0.25 0.9375
vt 0.5 0.9375
vt 0.5 0.75
vt 0.25 0.75
vt 0 0.9375
vt 0.25 0.9375
vt 0.25 0.75
vt 0 0.75
vt 0 0.5
vt 0.25 0.5
vt 0.25 0
vt 0 0
vt 0.25 0
vt 0.25 0.5
vt 0.5 0.5
vt 0.5 0
vn 0 0 -1
vn 1 0 0
vn 0 0 1
vn -1 0 0
vn 0 1 0
vn 0 -1 0
usemtl m_0
f 20/44/11 23/43/11 21/42/11 18/41/11
f 19/48/12 20/47/12 18/46/12 17/45/12
f 24/52/13 19/51/13 17/50/13 22/49/13
f 23/56/14 24/55/14 22/54/14 21/53/14
f 22/60/15 17/59/15 18/58/15 21/57/15
f 23/64/16 20/63/16 19/62/16 24/61/16
o stoveWallN
v 0.8125 0.5 0.375
v 0.8125 0.5 0
v 0.8125 0 0.375
v 0.8125 0 0
v 0.1875 0.5 0
v 0.1875 0.5 0.375
v 0.1875 0 0
v 0.1875 0 0.375
vt 0.796875 0.75
vt 0.953125 0.75
vt 0.953125 0.5
vt 0.796875 0.5
vt 0.296875 0.4375
vt 0.453125 0.4375
vt 0.453125 0.1875
vt 0.296875 0.1875
vt 0.296875 0.1875
vt 0.453125 0.1875
vt 0.453125 0
vt 0.296875 0
vn 0 0 -1
vn 0 0 1
vn 0 -1 0
usemtl m_0
f 28/68/17 31/67/17 29/66/17 26/65/17
f 32/72/18 27/71/18 25/70/18 30/69/18
f 31/76/19 28/75/19 27/74/19 32/73/19
o cube2
v 0.375 0.5 1
v 0.375 0.5 0.375
v 0.1875 0.5 1
v 0.1875 0.5 0.375
v 0.1875 0.3125 1
v 0.1875 0.3125 0.375
vt 0.34375 0.75
vt 0.296875 0.75
vt 0.296875 0.65625
vt 0.296875 0.22633124999999998
vt 0.453125 0.22633124999999998
vt 0.453125 0.09375
vt 0.296875 0.09375
vn 0 0 1
vn 0.7071067811865476 -0.7071067811865476 0
usemtl m_0
f 33/77/20 35/78/20 37/79/20
f 34/80/21 33/81/21 37/82/21 38/83/21
o cube
v 0.8125 0.5 1
v 0.8125 0.5 0.375
v 0.8125 0.3125 1
v 0.8125 0.3125 0.375
v 0.625 0.5 1
v 0.625 0.5 0.375
vt 0.296875 0.0625
vt 0.296875 0.19508124999999998
vt 0.453125 0.19508124999999998
vt 0.453125 0.0625
vt 0.453125 0.75
vt 0.40625 0.75
vt 0.453125 0.65625
vn -0.7071067811865476 -0.7071067811865476 0
vn 0 0 1
usemtl m_0
f 41/84/22 43/85/22 44/86/22 42/87/22
f 39/88/23 43/89/23 41/90/23
o stoveRimS
v 1 1 1
v 1 1 0.875
v 1 0.875 1
v 1 0.875 0.875
v 0.125 1 0.875
v 0.125 1 1
v 0.125 0.875 0.875
v 0.125 0.875 1
vt 0.015625 0.0625
vt 0.234375 0.0625
vt 0.234375 0
vt 0.015625 0
vt 0.5 1
vt 0.53125 1
vt 0.53125 0.9375
vt 0.5 0.9375
vt 0.28125 1
vt 0.5 1
vt 0.5 0.9375
vt 0.28125 0.9375
vt 0.03125 0.0625
vt 0.25 0.0625
vt 0.25 0
vt 0.03125 0
vn 0 0 -1
vn 1 0 0
vn 0 0 1
vn 0 1 0
usemtl m_0
f 48/94/24 51/93/24 49/92/24 46/91/24
f 47/98/25 48/97/25 46/96/25 45/95/25
f 52/102/26 47/101/26 45/100/26 50/99/26
f 50/106/27 45/105/27 46/104/27 49/103/27
o stoveRimE
v 1 1 1.1102230246251565e-16
v 0.8750000000000001 1 1.1102230246251565e-16
v 1 0.875 1.1102230246251565e-16
v 0.8750000000000001 0.875 1.1102230246251565e-16
v 0.875 1 0.8750000000000001
v 1 1 0.8750000000000001
v 0.875 0.875 0.8750000000000001
v 1 0.875 0.8750000000000001
vt 0.015625 0.0625
vt 0.234375 0.0625
vt 0.234375 0
vt 0.015625 0
vt 0.75 1
vt 0.78125 1
vt 0.78125 0.9375
vt 0.75 0.9375
vt 0.53125 1
vt 0.75 1
vt 0.75 0.9375
vt 0.53125 0.9375
vt 0.21875 0.0625
vt 0.21875 0.5
vt 0.25 0.5
vt 0.25 0.0625
vn -1 1.1655923932755217e-19 -2.220446049250313e-16
vn 2.220446049250313e-16 -2.5881350246848493e-35 -1
vn 1 -1.1655923932755217e-19 2.220446049250313e-16
vn 1.1655923932755217e-19 1 1.8072259420080446e-36
usemtl m_0
f 56/110/28 59/109/28 57/108/28 54/107/28
f 55/114/29 56/113/29 54/112/29 53/111/29
f 60/118/30 55/117/30 53/116/30 58/115/30
f 58/122/31 53/121/31 54/120/31 57/119/31
o stoveRimN
v 5.551115123125783e-17 1 1.6653345369377348e-16
v 5.551115123125783e-17 1 0.12500000000000017
v 5.551115123125783e-17 0.8750000000000002 1.6653345369377348e-16
v 5.551115123125783e-17 0.8750000000000001 0.12500000000000017
v 0.875 1 0.12500000000000006
v 0.875 1 5.551115123125783e-17
v 0.875 0.875 0.12500000000000006
v 0.875 0.8750000000000001 5.551115123125783e-17
vt 0.015625 0.0625
vt 0.234375 0.0625
vt 0.234375 0
vt 0.015625 0
vt 0 1
vt 0.03125 1
vt 0.03125 0.9375
vt 0 0.9375
vt 0.78125 1
vt 1 1
vt 1 0.9375
vt 0.78125 0.9375
vt 0.21875 0.4375
vt 0 0.4375
vt 0 0.5
vt 0.21875 0.5
vn 1.224646799147353e-16 -1.2246467991473535e-16 1
vn -1 1.224646799147353e-16 1.2246467991473535e-16
vn -1.224646799147353e-16 1.2246467991473535e-16 -1
vn 1.2246467991473535e-16 1 1.224646799147353e-16
usemtl m_0
f 64/126/32 67/125/32 65/124/32 62/123/32
f 63/130/33 64/129/33 62/128/33 61/127/33
f 68/134/34 63/133/34 61/132/34 66/131/34
f 66/138/35 61/137/35 62/136/35 65/135/35
o stoveRimW
v 2.55351295663786e-15 1.0000000000000013 1
v 0.12500000000000255 1.0000000000000009 1
v 2.275957200481571e-15 0.8750000000000012 1
v 0.12500000000000228 0.8750000000000009 1
v 0.1250000000000024 1.0000000000000009 0.1250000000000001
v 2.3869795029440866e-15 1.0000000000000013 0.1250000000000001
v 0.12500000000000205 0.8750000000000009 0.1250000000000001
v 2.0539125955565396e-15 0.8750000000000012 0.1250000000000001
vt 0.015625 0.0625
vt 0.234375 0.0625
vt 0.234375 0
vt 0.015625 0
vt 0.25 1
vt 0.28125 1
vt 0.28125 0.9375
vt 0.25 0.9375
vt 0.03125 1
vt 0.25 1
vt 0.25 0.9375
vt 0.03125 0.9375
vt 0.03125 0.4375
vt 0.03125 0
vt 0 0
vt 0 0.4375
vn 1 -2.465258849840456e-15 -2.220446049250313e-16
vn 2.220446049250313e-16 -5.473974273507611e-31 1
vn -1 2.465258849840456e-15 2.220446049250313e-16
vn 2.465258849840456e-15 1 -1.5296697474025523e-31
usemtl m_0
f 72/142/36 75/141/36 73/140/36 70/139/36
f 71/146/37 72/145/37 70/144/37 69/143/37
f 76/150/38 71/149/38 69/148/38 74/147/38
f 74/154/39 69/153/39 70/152/39 73/151/39